<?xml version="1.0" standalone="no"?>
<svg xmlns="http://www.w3.org/2000/svg" viewBox="0 0 192.672 36" width="192.672" height="36"><g fill="#69a676" color="#69a676" transform="translate(0 4) scale(0.5283019)"><svg width="53.0" height="53.0" x="0.0" y="0.0" viewBox="0 0 53 53"><path fill="currentColor" fill-rule="evenodd" d="M47.767 8.544a98.565 98.565 0 0 1-7.287 9.516.982.982 0 0 0-.199-.04h-6.36a1.06 1.06 0 0 0-1.046 1.234l1.052 6.309a81.588 81.588 0 0 1-7.39 7.265l-7.165-2.047a1.06 1.06 0 0 0-1.33 1.227l1.06 5.3c.015.052.035.1.057.147-3.732 2.038-7.847 4.076-10.704 5.455 8.78-12.241 25.257-32.704 41.841-40.024a51.333 51.333 0 0 1-2.529 5.658zM35.172 20.14h3.553a209.062 209.062 0 0 1-2.984 3.418l-.569-3.418zm-14.71 13.157l3.902 1.115a73.381 73.381 0 0 1-3.286 1.974l-.616-3.09zM12.48 23.27c.078.026.159.043.24.049h5.301a1.06 1.06 0 0 0 1.06-1.06v-6.064a82.995 82.995 0 0 1 8.222-6.708c.082.028.17.046.258.052h6.36a1.06 1.06 0 0 0 1.06-1.06V4.889a23.605 23.605 0 0 1 7.33-2.297 88.944 88.944 0 0 1 4.501-.397c-16.24 8.399-31.618 27.561-40.038 39.353.638-4.911 2.184-13.121 5.706-18.277zm4.481-5.034V21.2h-2.82a69.94 69.94 0 0 1 2.82-2.963zm15.9-12.266V7.42h-2.478c.824-.515 1.65-.995 2.477-1.45zm20.098-4.695a1.03 1.03 0 0 0-.025-.588 1.064 1.064 0 0 0-1.366-.621c-.07.026-.142.061-.214.088-1.235-.22-3.765-.28-9.277.328a26.337 26.337 0 0 0-8.552 2.776c-.016.007-.03.017-.048.025-8.375 4.17-17.006 11.952-21.558 17.223-6.182 7.158-7.468 21.974-7.651 24.621C1.86 48.64.395 51.001.158 51.384A1.061 1.061 0 0 0 1.961 52.5l.002-.005c.06-.096 1.516-2.438 4.012-6.059 1.865-.867 13.94-6.53 20.05-10.572C32.772 31.4 47.66 13.07 49.615 9.581a66.012 66.012 0 0 0 3.323-7.684.951.951 0 0 0 .021-.621z"></path></svg></g><path fill="#484747" fill-rule="nonzero" d="M0.94 2.35L0.05 2.28Q0 1.90 0 1.62Q0 1.34 0.07 0.94L0.07 0.94Q0.91 0.96 2.21 0.96Q3.50 0.96 4.32 0.94L4.32 0.94Q4.39 1.30 4.39 1.66Q4.39 2.02 4.34 2.28L4.34 2.28L3.50 2.35Q4.63 9.96 6.22 14.28L6.22 14.28L6.36 14.28Q7.10 12.46 7.79 9.23Q8.47 6.00 8.83 3.17L8.83 3.17Q9.55 2.88 10.02 2.88Q10.49 2.88 10.87 2.93L10.87 2.93Q11.95 10.22 13.51 14.28L13.51 14.28L13.66 14.28Q14.47 12.00 15.19 8.51Q15.91 5.02 16.20 2.35L16.20 2.35L15.34 2.28Q15.29 2.09 15.29 1.72Q15.29 1.34 15.36 0.94L15.36 0.94Q16.22 0.96 17.45 0.96Q18.67 0.96 19.42 0.94L19.42 0.94Q19.49 1.30 19.49 1.55Q19.49 1.80 19.44 2.28L19.44 2.28L18.60 2.35Q17.90 4.54 16.58 9.23Q15.26 13.92 14.64 16.37L14.64 16.37Q13.78 16.58 13.07 16.58Q12.36 16.58 12.14 16.56L12.14 16.56Q11.81 15.41 11.00 12.22Q10.20 9.02 9.82 7.56L9.82 7.56L9.70 7.56Q8.09 13.39 7.34 16.37L7.34 16.37Q6.48 16.58 5.77 16.58Q5.06 16.58 4.85 16.56L4.85 16.56Q4.75 16.25 3.28 10.48Q1.80 4.70 0.94 2.35L0.94 2.35ZM20.59 10.68Q20.59 4.90 25.10 4.90Q29.62 4.90 29.62 10.68L29.62 10.68Q29.62 13.34 28.78 14.90L28.78 14.90Q27.82 16.73 25.10 16.73Q22.39 16.73 21.43 14.90L21.43 14.90Q20.59 13.34 20.59 10.68L20.59 10.68ZM22.56 10.62Q22.56 15.00 25.10 15.00Q27.65 15.00 27.65 10.62Q27.65 6.24 25.10 6.24Q22.56 6.24 22.56 10.62ZM41.33 7.97L41.33 7.97L41.30 10.30Q41.30 12.82 41.59 14.98L41.59 14.98L42.43 15.05Q42.48 15.58 42.48 15.78Q42.48 15.98 42.41 16.39L42.41 16.39Q41.74 16.37 40.39 16.37Q39.05 16.37 38.47 16.39L38.47 16.39Q38.40 16.03 38.40 15.71Q38.40 15.38 38.45 15.05L38.45 15.05L39.29 14.98Q39.48 12.17 39.48 10.16Q39.48 8.16 39.08 7.30Q38.69 6.43 37.73 6.43L37.73 6.43Q36.43 6.43 34.87 7.99L34.87 7.99Q34.85 8.62 34.85 10.91Q34.85 13.20 35.06 14.98L35.06 14.98L35.95 15.05Q36 15.58 36 15.78Q36 15.98 35.93 16.39L35.93 16.39Q35.26 16.37 33.96 16.37Q32.66 16.37 32.06 16.39L32.06 16.39Q31.99 16.03 31.99 15.71Q31.99 15.38 32.04 15.05L32.04 15.05L32.88 14.98Q33.10 12.58 33.10 10.57Q33.10 8.57 32.90 6.60L32.90 6.60L32.02 6.53Q31.94 6.12 31.94 5.72Q31.94 5.33 31.97 5.18L31.97 5.18Q33.19 5.16 34.94 4.97L34.94 4.97L35.06 5.09Q35.02 5.38 34.92 6.53L34.92 6.53Q35.66 5.78 36.65 5.34Q37.63 4.90 38.50 4.90L38.50 4.90Q41.33 4.90 41.33 7.97ZM51.58 5.47L51.58 5.47L51.60 3.96Q51.60 2.52 51.50 1.63L51.50 1.63L50.54 1.56Q50.47 1.27 50.47 0.82Q50.47 0.36 50.50 0.22L50.50 0.22Q52.63 0.12 53.62 0L53.62 0L53.71 0.12Q53.35 3.26 53.35 8.22Q53.35 13.18 53.57 14.76L53.57 14.76L54.46 14.81Q54.50 15.34 54.50 15.59Q54.50 15.84 54.43 16.20L54.43 16.20Q53.50 16.25 51.82 16.44L51.82 16.44Q51.62 16.06 51.53 15.22L51.53 15.22Q49.87 16.73 48.18 16.73Q46.49 16.73 45.59 15.19Q44.69 13.66 44.69 10.84Q44.69 8.02 45.83 6.46Q46.97 4.90 49.10 4.90L49.10 4.90Q50.30 4.90 51.58 5.47ZM49.13 6.31L49.13 6.31Q46.73 6.31 46.73 11.09L46.73 11.09Q46.73 12.89 47.27 13.88Q47.81 14.88 48.77 14.88L48.77 14.88Q49.42 14.88 50.20 14.47Q50.98 14.06 51.55 13.44L51.55 13.44Q51.60 10.46 51.60 7.01L51.60 7.01Q50.06 6.31 49.13 6.31ZM60.70 11.04L60.70 11.04Q59.52 11.04 58.51 10.92L58.51 10.92Q58.56 15.00 61.22 15.00L61.22 15.00Q62.57 15.00 64.20 13.51L64.20 13.51Q64.90 14.23 65.09 15.41L65.09 15.41Q63.12 16.73 60.91 16.73Q58.70 16.73 57.62 15.20Q56.54 13.68 56.54 10.73Q56.54 7.78 57.76 6.34Q58.97 4.90 61.20 4.90L61.20 4.90Q62.86 4.90 63.94 5.90Q65.02 6.91 65.03 8.38Q65.04 9.84 64.78 10.46L64.78 10.46Q62.98 11.04 60.70 11.04ZM61.03 6.24L61.03 6.24Q58.80 6.24 58.54 9.53L58.54 9.53Q59.62 9.65 60.91 9.65Q62.21 9.65 62.93 9.41L62.93 9.41Q63.02 8.81 63.02 8.52L63.02 8.52Q63.02 7.46 62.48 6.85Q61.94 6.24 61.03 6.24ZM67.15 15.05L67.99 14.98Q68.21 12.58 68.21 10.57Q68.21 8.57 68.02 6.60L68.02 6.60L67.13 6.53Q67.06 6.14 67.06 5.74Q67.06 5.33 67.08 5.18L67.08 5.18Q68.30 5.16 70.06 4.97L70.06 4.97L70.18 5.09Q70.15 5.23 70.03 6.50L70.03 6.50Q70.58 5.81 71.32 5.35Q72.05 4.90 72.76 4.90Q73.46 4.90 73.99 5.40Q74.52 5.90 74.52 6.72L74.52 6.72Q74.52 8.06 73.39 8.06L73.39 8.06Q72.74 8.06 72.36 7.64Q71.98 7.22 71.98 6.53L71.98 6.53Q71.93 6.50 71.81 6.50L71.81 6.50Q70.92 6.50 69.98 7.85L69.98 7.85Q69.96 8.52 69.96 10.86Q69.96 13.20 70.18 14.98L70.18 14.98L71.06 15.05Q71.11 15.58 71.11 15.78Q71.11 15.98 71.04 16.39L71.04 16.39Q70.37 16.37 69.07 16.37Q67.78 16.37 67.18 16.39L67.18 16.39Q67.10 16.03 67.10 15.71Q67.10 15.38 67.15 15.05L67.15 15.05ZM86.11 7.99L86.11 7.99Q86.81 8.64 87.88 8.64Q88.94 8.64 89.63 7.74Q90.31 6.84 90.31 5.35L90.31 5.35Q90.31 2.02 87.14 2.02L87.14 2.02Q86.06 2.02 84.89 2.50L84.89 2.50Q84.72 4.58 84.72 8.42Q84.72 12.26 84.94 14.98L84.94 14.98L85.82 15.05Q85.87 15.58 85.87 15.78Q85.87 15.98 85.80 16.39L85.80 16.39Q85.10 16.37 83.76 16.37Q82.42 16.37 81.91 16.39L81.91 16.39Q81.84 16.03 81.84 15.71Q81.84 15.38 81.89 15.05L81.89 15.05L82.73 14.98Q82.92 12.34 82.92 8.35Q82.92 4.37 82.68 2.47L82.68 2.47L81.77 2.40Q81.70 2.11 81.70 1.66Q81.70 1.20 81.72 1.06L81.72 1.06Q83.33 1.01 84.55 0.83Q85.78 0.65 87.17 0.65L87.17 0.65Q92.40 0.65 92.40 5.35L92.40 5.35Q92.40 7.25 91.46 8.47Q90.53 9.70 88.85 10.01L88.85 10.01Q91.22 13.78 92.14 14.86L92.14 14.86L93.26 14.93Q93.31 15.31 93.31 15.64Q93.31 15.96 93.24 16.32L93.24 16.32Q91.06 16.39 90.19 16.44L90.19 16.44L90.10 16.18Q89.69 15.17 89.10 14.08Q88.51 12.98 86.64 10.06L86.64 10.06Q86.14 10.03 85.61 9.79L85.61 9.79Q85.61 9.31 85.76 8.75Q85.92 8.18 86.11 7.99ZM98.90 11.04L98.90 11.04Q97.73 11.04 96.72 10.92L96.72 10.92Q96.77 15.00 99.43 15.00L99.43 15.00Q100.78 15.00 102.41 13.51L102.41 13.51Q103.10 14.23 103.30 15.41L103.30 15.41Q101.33 16.73 99.12 16.73Q96.91 16.73 95.83 15.20Q94.75 13.68 94.75 10.73Q94.75 7.78 95.96 6.34Q97.18 4.90 99.41 4.90L99.41 4.90Q101.06 4.90 102.14 5.90Q103.22 6.91 103.24 8.38Q103.25 9.84 102.98 10.46L102.98 10.46Q101.18 11.04 98.90 11.04ZM99.24 6.24L99.24 6.24Q97.01 6.24 96.74 9.53L96.74 9.53Q97.82 9.65 99.12 9.65Q100.42 9.65 101.14 9.41L101.14 9.41Q101.23 8.81 101.23 8.52L101.23 8.52Q101.23 7.46 100.69 6.85Q100.15 6.24 99.24 6.24ZM112.20 6.58L111.19 6.50Q111.14 6.26 111.14 5.87Q111.14 5.47 111.22 5.16L111.22 5.16Q111.94 5.18 113.22 5.18Q114.50 5.18 115.20 5.16L115.20 5.16Q115.27 5.47 115.27 5.83Q115.27 6.19 115.22 6.50L115.22 6.50L114.43 6.58Q111.41 13.61 110.71 16.37L110.71 16.37Q110.09 16.54 109.60 16.54Q109.10 16.54 108.94 16.51L108.94 16.51Q107.57 11.66 105.22 6.58L105.22 6.58L104.42 6.50Q104.38 6.22 104.38 5.84Q104.38 5.47 104.45 5.16L104.45 5.16Q105.14 5.18 106.52 5.18Q107.90 5.18 108.62 5.16L108.62 5.16Q108.70 5.47 108.70 5.84Q108.70 6.22 108.65 6.50L108.65 6.50L107.66 6.58Q108.14 9.67 109.87 13.70L109.87 13.70L109.97 13.70Q110.59 12.50 111.24 10.43Q111.89 8.35 112.20 6.58L112.20 6.58ZM116.74 15.05L117.58 14.98Q117.79 12.62 117.79 10.67Q117.79 8.71 117.60 6.60L117.60 6.60L116.71 6.53Q116.64 6.12 116.64 5.75Q116.64 5.38 116.66 5.18L116.66 5.18Q118.06 5.14 119.64 4.97L119.64 4.97L119.76 5.09Q119.54 6.50 119.54 9.84Q119.54 13.18 119.76 14.98L119.76 14.98L120.65 15.05Q120.70 15.43 120.70 15.71Q120.70 15.98 120.62 16.39L120.62 16.39Q119.78 16.37 118.68 16.37Q117.58 16.37 116.76 16.39L116.76 16.39Q116.69 16.03 116.69 15.65Q116.69 15.26 116.74 15.05L116.74 15.05ZM120 1.66L120 1.66Q120 3.14 118.46 3.14L118.46 3.14Q117.26 3.14 117.26 1.92L117.26 1.92Q117.26 0.41 118.80 0.41L118.80 0.41Q120 0.41 120 1.66ZM126.94 11.04L126.94 11.04Q125.76 11.04 124.75 10.92L124.75 10.92Q124.80 15.00 127.46 15.00L127.46 15.00Q128.81 15.00 130.44 13.51L130.44 13.51Q131.14 14.23 131.33 15.41L131.33 15.41Q129.36 16.73 127.15 16.73Q124.94 16.73 123.86 15.20Q122.78 13.68 122.78 10.73Q122.78 7.78 124.00 6.34Q125.21 4.90 127.44 4.90L127.44 4.90Q129.10 4.90 130.18 5.90Q131.26 6.91 131.27 8.38Q131.28 9.84 131.02 10.46L131.02 10.46Q129.22 11.04 126.94 11.04ZM127.27 6.24L127.27 6.24Q125.04 6.24 124.78 9.53L124.78 9.53Q125.86 9.65 127.15 9.65Q128.45 9.65 129.17 9.41L129.17 9.41Q129.26 8.81 129.26 8.52L129.26 8.52Q129.26 7.46 128.72 6.85Q128.18 6.24 127.27 6.24ZM139.27 6.53L139.27 6.53Q139.99 6.36 140.51 6.36Q141.02 6.36 141.46 6.43L141.46 6.43Q141.94 10.37 142.82 13.70L142.82 13.70L142.92 13.70Q143.47 12.50 144.01 10.44Q144.55 8.38 144.79 6.58L144.79 6.58L143.81 6.50Q143.76 6.26 143.76 5.87Q143.76 5.47 143.83 5.16L143.83 5.16Q144.55 5.18 145.84 5.18Q147.12 5.18 147.82 5.16L147.82 5.16Q147.89 5.47 147.89 5.83Q147.89 6.19 147.84 6.50L147.84 6.50L147.02 6.58Q144.24 13.73 143.57 16.37L143.57 16.37Q142.94 16.54 142.45 16.54Q141.96 16.54 141.79 16.51L141.79 16.51Q141.53 14.64 140.21 9.62L140.21 9.62L140.11 9.62Q138.74 13.75 138.14 16.37L138.14 16.37Q137.52 16.54 137.03 16.54Q136.54 16.54 136.37 16.51L136.37 16.51Q135.94 14.57 135.05 11.72Q134.16 8.88 133.25 6.58L133.25 6.58L132.46 6.50Q132.41 6.22 132.41 5.84Q132.41 5.47 132.48 5.16L132.48 5.16Q133.18 5.18 134.57 5.18Q135.96 5.18 136.68 5.16L136.68 5.16Q136.75 5.47 136.75 5.84Q136.75 6.22 136.70 6.50L136.70 6.50L135.74 6.58Q136.08 9.29 137.40 13.70L137.40 13.70L137.50 13.70Q138.02 12.50 138.58 10.28Q139.13 8.06 139.27 6.53ZM152.83 4.90Q154.51 4.90 155.51 5.69Q156.50 6.48 156.50 7.74Q156.50 9.00 155.38 9.00L155.38 9.00Q154.70 9.00 154.33 8.58Q153.96 8.16 153.96 7.58Q153.96 7.01 154.15 6.62L154.15 6.62Q153.58 6.17 152.78 6.17Q151.99 6.17 151.48 6.55Q150.96 6.94 150.96 7.68Q150.96 8.42 151.55 8.98Q152.14 9.53 152.98 9.88Q153.82 10.22 154.66 10.60Q155.50 10.97 156.08 11.65Q156.67 12.34 156.67 13.34L156.67 13.34Q156.67 14.90 155.63 15.82Q154.58 16.73 152.78 16.73Q150.98 16.73 149.84 15.96Q148.70 15.19 148.70 13.94L148.70 13.94L148.70 13.85Q148.70 12.55 149.83 12.55L149.83 12.55Q150.50 12.55 150.88 12.97Q151.25 13.39 151.25 13.94Q151.25 14.50 151.13 14.81L151.13 14.81Q151.61 15.12 152.65 15.12Q153.70 15.12 154.24 14.76Q154.78 14.40 154.78 13.76Q154.78 13.13 154.19 12.62Q153.60 12.12 152.76 11.77Q151.92 11.42 151.08 11.03Q150.24 10.63 149.65 9.89Q149.06 9.14 149.06 8.11L149.06 8.11Q149.06 6.62 150.11 5.76Q151.15 4.90 152.83 4.90Z" transform="translate(36, 9.636)"></path></svg>